<svg xmlns="http://www.w3.org/2000/svg" viewBox="0 0 1600 2000" width="1600" height="2000"><circle cx="1279" cy="652" r="0.9" fill="#FFF3D6" opacity="0.70"/><circle cx="184" cy="952" r="1.4" fill="#FFF3D6" opacity="0.59"/><circle cx="233" cy="1261" r="1.3" fill="#FFF3D6" opacity="0.72"/><circle cx="45" cy="1914" r="0.8" fill="#FFF3D6" opacity="0.70"/><circle cx="812" cy="1671" r="0.9" fill="#FFF3D6" opacity="0.43"/><circle cx="139" cy="1557" r="1.3" fill="#FFF3D6" opacity="0.36"/><circle cx="307" cy="162" r="0.9" fill="#FFF3D6" opacity="0.56"/><circle cx="700" cy="1409" r="0.7" fill="#FFF3D6" opacity="0.71"/><circle cx="1571" cy="1479" r="1.6" fill="#FFF3D6" opacity="0.72"/><circle cx="152" cy="922" r="0.7" fill="#FFF3D6" opacity="0.68"/><circle cx="861" cy="213" r="1.2" fill="#FFF3D6" opacity="0.68"/><circle cx="883" cy="243" r="1.9" fill="#FFF3D6" opacity="0.28"/><circle cx="1349" cy="1948" r="1.7" fill="#FFF3D6" opacity="0.77"/><circle cx="850" cy="438" r="1.3" fill="#FFF3D6" opacity="0.66"/><circle cx="1230" cy="769" r="1.9" fill="#FFF3D6" opacity="0.27"/><circle cx="793" cy="79" r="1.1" fill="#FFF3D6" opacity="0.79"/><circle cx="189" cy="1971" r="1.9" fill="#FFF3D6" opacity="0.63"/><circle cx="90" cy="943" r="1.6" fill="#FFF3D6" opacity="0.30"/><circle cx="477" cy="184" r="1.8" fill="#FFF3D6" opacity="0.75"/><circle cx="1478" cy="1502" r="1.4" fill="#FFF3D6" opacity="0.28"/><circle cx="770" cy="1521" r="1.7" fill="#FFF3D6" opacity="0.26"/><circle cx="13" cy="176" r="1.9" fill="#FFF3D6" opacity="0.31"/><circle cx="624" cy="952" r="1.8" fill="#FFF3D6" opacity="0.32"/><circle cx="418" cy="1544" r="0.7" fill="#FFF3D6" opacity="0.34"/><circle cx="40" cy="1917" r="0.9" fill="#FFF3D6" opacity="0.53"/><circle cx="607" cy="1963" r="1.6" fill="#FFF3D6" opacity="0.58"/><circle cx="783" cy="536" r="1.8" fill="#FFF3D6" opacity="0.31"/><circle cx="995" cy="590" r="1.0" fill="#FFF3D6" opacity="0.50"/><circle cx="303" cy="1184" r="0.7" fill="#FFF3D6" opacity="0.26"/><circle cx="226" cy="180" r="1.8" fill="#FFF3D6" opacity="0.53"/><circle cx="1086" cy="1558" r="0.8" fill="#FFF3D6" opacity="0.77"/><circle cx="615" cy="920" r="1.3" fill="#FFF3D6" opacity="0.63"/><circle cx="1229" cy="388" r="1.8" fill="#FFF3D6" opacity="0.49"/><circle cx="402" cy="1729" r="1.8" fill="#FFF3D6" opacity="0.72"/><circle cx="518" cy="1828" r="1.7" fill="#FFF3D6" opacity="0.78"/><circle cx="1208" cy="2000" r="1.3" fill="#FFF3D6" opacity="0.66"/><circle cx="1250" cy="1049" r="1.3" fill="#FFF3D6" opacity="0.47"/><circle cx="1390" cy="757" r="1.6" fill="#FFF3D6" opacity="0.56"/><circle cx="1131" cy="618" r="0.7" fill="#FFF3D6" opacity="0.62"/><circle cx="232" cy="719" r="1.7" fill="#FFF3D6" opacity="0.28"/><circle cx="1458" cy="1178" r="1.4" fill="#FFF3D6" opacity="0.62"/><circle cx="91" cy="44" r="1.6" fill="#FFF3D6" opacity="0.57"/><circle cx="1023" cy="1646" r="1.0" fill="#FFF3D6" opacity="0.34"/><circle cx="1550" cy="121" r="1.3" fill="#FFF3D6" opacity="0.59"/><circle cx="1528" cy="173" r="1.6" fill="#FFF3D6" opacity="0.29"/><circle cx="726" cy="1240" r="1.8" fill="#FFF3D6" opacity="0.28"/><circle cx="1198" cy="298" r="1.2" fill="#FFF3D6" opacity="0.79"/><circle cx="1361" cy="153" r="0.6" fill="#FFF3D6" opacity="0.27"/><circle cx="1249" cy="77" r="1.7" fill="#FFF3D6" opacity="0.69"/><circle cx="1308" cy="1873" r="1.5" fill="#FFF3D6" opacity="0.70"/><circle cx="869" cy="1337" r="0.7" fill="#FFF3D6" opacity="0.55"/><circle cx="1585" cy="776" r="1.6" fill="#FFF3D6" opacity="0.35"/><circle cx="771" cy="1083" r="1.7" fill="#FFF3D6" opacity="0.43"/><circle cx="750" cy="380" r="1.4" fill="#FFF3D6" opacity="0.77"/><circle cx="619" cy="1319" r="1.4" fill="#FFF3D6" opacity="0.36"/><circle cx="1114" cy="423" r="1.5" fill="#FFF3D6" opacity="0.80"/><circle cx="491" cy="1337" r="1.1" fill="#FFF3D6" opacity="0.60"/><circle cx="306" cy="1001" r="1.7" fill="#FFF3D6" opacity="0.37"/><circle cx="567" cy="451" r="0.8" fill="#FFF3D6" opacity="0.62"/><circle cx="1330" cy="1054" r="1.2" fill="#FFF3D6" opacity="0.42"/><circle cx="383" cy="1885" r="1.3" fill="#FFF3D6" opacity="0.62"/><circle cx="446" cy="346" r="0.6" fill="#FFF3D6" opacity="0.41"/><circle cx="670" cy="1043" r="1.5" fill="#FFF3D6" opacity="0.63"/><circle cx="1402" cy="1604" r="1.6" fill="#FFF3D6" opacity="0.69"/><circle cx="867" cy="945" r="1.9" fill="#FFF3D6" opacity="0.74"/><circle cx="618" cy="1735" r="1.2" fill="#FFF3D6" opacity="0.66"/><circle cx="39" cy="1189" r="1.9" fill="#FFF3D6" opacity="0.49"/><circle cx="1393" cy="1361" r="0.6" fill="#FFF3D6" opacity="0.29"/><circle cx="529" cy="1943" r="1.5" fill="#FFF3D6" opacity="0.58"/><circle cx="1376" cy="700" r="0.8" fill="#FFF3D6" opacity="0.50"/><circle cx="1453" cy="331" r="1.3" fill="#FFF3D6" opacity="0.41"/><circle cx="572" cy="185" r="1.9" fill="#FFF3D6" opacity="0.39"/><circle cx="1263" cy="346" r="1.2" fill="#FFF3D6" opacity="0.26"/><circle cx="942" cy="1019" r="1.2" fill="#FFF3D6" opacity="0.36"/><circle cx="1021" cy="71" r="1.9" fill="#FFF3D6" opacity="0.52"/><circle cx="978" cy="849" r="0.6" fill="#FFF3D6" opacity="0.27"/><circle cx="1161" cy="973" r="1.0" fill="#FFF3D6" opacity="0.55"/><circle cx="1394" cy="1020" r="1.3" fill="#FFF3D6" opacity="0.57"/><circle cx="1398" cy="63" r="1.5" fill="#FFF3D6" opacity="0.57"/><circle cx="1146" cy="330" r="1.8" fill="#FFF3D6" opacity="0.69"/><circle cx="444" cy="1896" r="0.7" fill="#FFF3D6" opacity="0.55"/><circle cx="138" cy="377" r="1.5" fill="#FFF3D6" opacity="0.64"/><circle cx="767" cy="490" r="1.4" fill="#FFF3D6" opacity="0.50"/><circle cx="614" cy="821" r="1.2" fill="#FFF3D6" opacity="0.45"/><circle cx="196" cy="994" r="1.0" fill="#FFF3D6" opacity="0.69"/><circle cx="1529" cy="1491" r="1.1" fill="#FFF3D6" opacity="0.51"/><circle cx="1182" cy="458" r="1.7" fill="#FFF3D6" opacity="0.27"/><circle cx="1548" cy="1114" r="1.7" fill="#FFF3D6" opacity="0.58"/><circle cx="1359" cy="846" r="0.7" fill="#FFF3D6" opacity="0.36"/><circle cx="1194" cy="1967" r="0.9" fill="#FFF3D6" opacity="0.52"/><circle cx="1249" cy="610" r="0.9" fill="#FFF3D6" opacity="0.67"/><circle cx="187" cy="667" r="1.4" fill="#FFF3D6" opacity="0.52"/><circle cx="1518" cy="967" r="1.2" fill="#FFF3D6" opacity="0.35"/><circle cx="1306" cy="100" r="0.6" fill="#FFF3D6" opacity="0.45"/><circle cx="1288" cy="509" r="1.3" fill="#FFF3D6" opacity="0.30"/><circle cx="448" cy="1879" r="1.8" fill="#FFF3D6" opacity="0.30"/><circle cx="1529" cy="937" r="0.8" fill="#FFF3D6" opacity="0.45"/><circle cx="1539" cy="367" r="1.7" fill="#FFF3D6" opacity="0.76"/><circle cx="1464" cy="1511" r="1.9" fill="#FFF3D6" opacity="0.31"/><circle cx="1112" cy="1925" r="1.3" fill="#FFF3D6" opacity="0.26"/><circle cx="464" cy="884" r="1.2" fill="#FFF3D6" opacity="0.65"/><circle cx="278" cy="13" r="1.5" fill="#FFF3D6" opacity="0.79"/><circle cx="774" cy="1362" r="1.6" fill="#FFF3D6" opacity="0.62"/><circle cx="1271" cy="60" r="1.6" fill="#FFF3D6" opacity="0.49"/><circle cx="618" cy="1606" r="0.8" fill="#FFF3D6" opacity="0.76"/><circle cx="1299" cy="1668" r="1.9" fill="#FFF3D6" opacity="0.37"/><circle cx="950" cy="1809" r="1.4" fill="#FFF3D6" opacity="0.62"/><circle cx="167" cy="1335" r="0.6" fill="#FFF3D6" opacity="0.53"/><circle cx="44" cy="616" r="0.8" fill="#FFF3D6" opacity="0.40"/><circle cx="206" cy="1364" r="1.3" fill="#FFF3D6" opacity="0.68"/><circle cx="1297" cy="1419" r="1.4" fill="#FFF3D6" opacity="0.54"/><circle cx="1233" cy="864" r="1.1" fill="#FFF3D6" opacity="0.47"/><circle cx="40" cy="418" r="1.5" fill="#FFF3D6" opacity="0.47"/><circle cx="683" cy="191" r="0.8" fill="#FFF3D6" opacity="0.73"/><circle cx="1281" cy="716" r="1.9" fill="#FFF3D6" opacity="0.56"/><circle cx="1198" cy="306" r="1.9" fill="#FFF3D6" opacity="0.50"/><circle cx="221" cy="134" r="0.7" fill="#FFF3D6" opacity="0.25"/><circle cx="1243" cy="1589" r="1.0" fill="#FFF3D6" opacity="0.41"/><circle cx="1460" cy="465" r="1.9" fill="#FFF3D6" opacity="0.70"/><circle cx="655" cy="914" r="1.2" fill="#FFF3D6" opacity="0.45"/><circle cx="1126" cy="1357" r="2.0" fill="#FFF3D6" opacity="0.32"/><circle cx="494" cy="1058" r="1.7" fill="#FFF3D6" opacity="0.80"/><circle cx="1312" cy="189" r="1.7" fill="#FFF3D6" opacity="0.37"/><circle cx="690" cy="149" r="0.6" fill="#FFF3D6" opacity="0.49"/><circle cx="1405" cy="580" r="0.6" fill="#FFF3D6" opacity="0.63"/><circle cx="447" cy="171" r="0.9" fill="#FFF3D6" opacity="0.74"/><circle cx="1441" cy="995" r="1.3" fill="#FFF3D6" opacity="0.63"/><circle cx="549" cy="770" r="1.7" fill="#FFF3D6" opacity="0.62"/><circle cx="1420" cy="1140" r="1.8" fill="#FFF3D6" opacity="0.71"/><circle cx="379" cy="1281" r="1.4" fill="#FFF3D6" opacity="0.34"/><circle cx="352" cy="783" r="1.9" fill="#FFF3D6" opacity="0.27"/><circle cx="1542" cy="1900" r="1.2" fill="#FFF3D6" opacity="0.59"/><circle cx="485" cy="85" r="0.6" fill="#FFF3D6" opacity="0.65"/><circle cx="366" cy="1018" r="1.0" fill="#FFF3D6" opacity="0.26"/><circle cx="628" cy="921" r="1.9" fill="#FFF3D6" opacity="0.53"/><circle cx="1554" cy="802" r="1.8" fill="#FFF3D6" opacity="0.53"/><circle cx="36" cy="1840" r="1.6" fill="#FFF3D6" opacity="0.57"/><circle cx="699" cy="17" r="1.8" fill="#FFF3D6" opacity="0.28"/><circle cx="172" cy="1552" r="1.0" fill="#FFF3D6" opacity="0.44"/><circle cx="437" cy="934" r="1.7" fill="#FFF3D6" opacity="0.43"/><circle cx="209" cy="1102" r="1.1" fill="#FFF3D6" opacity="0.74"/><circle cx="100" cy="837" r="1.2" fill="#FFF3D6" opacity="0.70"/><circle cx="300" cy="1581" r="1.4" fill="#FFF3D6" opacity="0.71"/><circle cx="1291" cy="1005" r="1.6" fill="#FFF3D6" opacity="0.32"/><circle cx="1207" cy="424" r="1.4" fill="#FFF3D6" opacity="0.34"/><circle cx="1516" cy="803" r="1.5" fill="#FFF3D6" opacity="0.53"/><circle cx="1103" cy="389" r="1.7" fill="#FFF3D6" opacity="0.46"/><circle cx="1027" cy="1865" r="1.5" fill="#FFF3D6" opacity="0.67"/><circle cx="783" cy="944" r="1.9" fill="#FFF3D6" opacity="0.51"/><circle cx="62" cy="624" r="1.3" fill="#FFF3D6" opacity="0.26"/><circle cx="157" cy="1139" r="0.8" fill="#FFF3D6" opacity="0.77"/><circle cx="193" cy="613" r="0.7" fill="#FFF3D6" opacity="0.46"/><circle cx="15" cy="1225" r="0.8" fill="#FFF3D6" opacity="0.31"/><circle cx="565" cy="228" r="1.0" fill="#FFF3D6" opacity="0.77"/><circle cx="509" cy="1399" r="1.5" fill="#FFF3D6" opacity="0.62"/><circle cx="727" cy="881" r="1.5" fill="#FFF3D6" opacity="0.33"/><circle cx="72" cy="211" r="0.6" fill="#FFF3D6" opacity="0.51"/><circle cx="146" cy="903" r="1.4" fill="#FFF3D6" opacity="0.38"/><circle cx="1080" cy="1020" r="1.0" fill="#FFF3D6" opacity="0.54"/><circle cx="54" cy="1095" r="0.8" fill="#FFF3D6" opacity="0.77"/><circle cx="887" cy="1055" r="0.9" fill="#FFF3D6" opacity="0.29"/><circle cx="253" cy="699" r="0.8" fill="#FFF3D6" opacity="0.74"/><circle cx="477" cy="848" r="1.1" fill="#FFF3D6" opacity="0.45"/><circle cx="286" cy="1366" r="1.8" fill="#FFF3D6" opacity="0.56"/><circle cx="371" cy="1538" r="0.6" fill="#FFF3D6" opacity="0.63"/><circle cx="698" cy="383" r="2.0" fill="#FFF3D6" opacity="0.29"/><circle cx="513" cy="1320" r="0.7" fill="#FFF3D6" opacity="0.67"/><circle cx="2" cy="353" r="1.8" fill="#FFF3D6" opacity="0.27"/><circle cx="1390" cy="323" r="1.1" fill="#FFF3D6" opacity="0.41"/><circle cx="1043" cy="1265" r="0.8" fill="#FFF3D6" opacity="0.39"/><path d="M783,1816 Q783,1824 791,1824 Q783,1824 783,1832 Q783,1824 775,1824 Q783,1824 783,1816Z" fill="#FFE9B0" opacity=".8"/><path d="M1040,1603 Q1040,1612 1049,1612 Q1040,1612 1040,1621 Q1040,1612 1031,1612 Q1040,1612 1040,1603Z" fill="#FFE9B0" opacity=".8"/><path d="M1361,752 Q1361,761 1371,761 Q1361,761 1361,771 Q1361,761 1352,761 Q1361,761 1361,752Z" fill="#FFE9B0" opacity=".8"/><path d="M158,406 Q158,411 164,411 Q158,411 158,417 Q158,411 153,411 Q158,411 158,406Z" fill="#FFE9B0" opacity=".8"/><path d="M1367,340 Q1367,348 1375,348 Q1367,348 1367,355 Q1367,348 1359,348 Q1367,348 1367,340Z" fill="#FFE9B0" opacity=".8"/><path d="M529,554 Q529,560 535,560 Q529,560 529,566 Q529,560 523,560 Q529,560 529,554Z" fill="#FFE9B0" opacity=".8"/><path d="M701,979 Q701,987 709,987 Q701,987 701,995 Q701,987 693,987 Q701,987 701,979Z" fill="#FFE9B0" opacity=".8"/><path d="M1084,1744 Q1084,1753 1092,1753 Q1084,1753 1084,1761 Q1084,1753 1076,1753 Q1084,1753 1084,1744Z" fill="#FFE9B0" opacity=".8"/><path d="M877,348 Q877,355 884,355 Q877,355 877,362 Q877,355 869,355 Q877,355 877,348Z" fill="#FFE9B0" opacity=".8"/><path d="M491,1403 Q491,1408 497,1408 Q491,1408 491,1414 Q491,1408 485,1408 Q491,1408 491,1403Z" fill="#FFE9B0" opacity=".8"/><path d="M757,452 Q757,462 768,462 Q757,462 757,473 Q757,462 747,462 Q757,462 757,452Z" fill="#FFE9B0" opacity=".8"/><path d="M279,1142 Q279,1149 286,1149 Q279,1149 279,1156 Q279,1149 272,1149 Q279,1149 279,1142Z" fill="#FFE9B0" opacity=".8"/><line x1="290" y1="260" x2="460" y2="260" stroke="#E4D8F0" stroke-width="1.7" opacity=".6"/><line x1="290" y1="260" x2="437" y2="345" stroke="#E4D8F0" stroke-width="1.7" opacity=".6"/><line x1="290" y1="260" x2="375" y2="407" stroke="#E4D8F0" stroke-width="1.7" opacity=".6"/><line x1="290" y1="260" x2="290" y2="430" stroke="#E4D8F0" stroke-width="1.7" opacity=".6"/><line x1="290" y1="260" x2="205" y2="407" stroke="#E4D8F0" stroke-width="1.7" opacity=".6"/><line x1="290" y1="260" x2="143" y2="345" stroke="#E4D8F0" stroke-width="1.7" opacity=".6"/><line x1="290" y1="260" x2="120" y2="260" stroke="#E4D8F0" stroke-width="1.7" opacity=".6"/><line x1="290" y1="260" x2="143" y2="175" stroke="#E4D8F0" stroke-width="1.7" opacity=".6"/><line x1="290" y1="260" x2="205" y2="113" stroke="#E4D8F0" stroke-width="1.7" opacity=".6"/><line x1="290" y1="260" x2="290" y2="90" stroke="#E4D8F0" stroke-width="1.7" opacity=".6"/><line x1="290" y1="260" x2="375" y2="113" stroke="#E4D8F0" stroke-width="1.7" opacity=".6"/><line x1="290" y1="260" x2="437" y2="175" stroke="#E4D8F0" stroke-width="1.7" opacity=".6"/><path d="M313,260 Q308,265 310,271 Q303,273 301,280 Q295,278 290,283 Q285,278 279,280 Q277,273 270,271 Q272,265 267,260 Q272,255 270,249 Q277,247 279,240 Q285,242 290,237 Q295,242 301,240 Q303,247 310,249 Q308,255 313,260" stroke="#E4D8F0" stroke-width="1.4" fill="none" opacity=".55"/><path d="M336,260 Q327,270 330,283 Q317,287 313,300 Q300,297 290,306 Q280,297 267,300 Q263,287 250,283 Q253,270 244,260 Q253,250 250,237 Q263,233 267,220 Q280,223 290,214 Q300,223 313,220 Q317,233 330,237 Q327,250 336,260" stroke="#E4D8F0" stroke-width="1.4" fill="none" opacity=".55"/><path d="M359,260 Q345,275 350,294 Q330,300 324,320 Q305,315 290,329 Q275,315 256,320 Q250,300 230,294 Q235,275 221,260 Q235,245 230,226 Q250,220 256,200 Q275,205 290,191 Q305,205 324,200 Q330,220 350,226 Q345,245 359,260" stroke="#E4D8F0" stroke-width="1.4" fill="none" opacity=".55"/><path d="M382,260 Q364,280 370,306 Q344,314 336,340 Q310,334 290,352 Q270,334 244,340 Q236,314 210,306 Q216,280 198,260 Q216,240 210,214 Q236,206 244,180 Q270,186 290,168 Q310,186 336,180 Q344,206 370,214 Q364,240 382,260" stroke="#E4D8F0" stroke-width="1.4" fill="none" opacity=".55"/><path d="M405,260 Q382,285 389,317 Q357,327 347,359 Q315,352 290,375 Q265,352 233,359 Q223,327 191,317 Q198,285 175,260 Q198,235 191,203 Q223,193 233,161 Q265,168 290,145 Q315,168 347,161 Q357,193 389,203 Q382,235 405,260" stroke="#E4D8F0" stroke-width="1.4" fill="none" opacity=".55"/><path d="M428,260 Q401,290 409,329 Q371,341 359,379 Q320,371 290,398 Q260,371 221,379 Q209,341 171,329 Q179,290 152,260 Q179,230 171,191 Q209,179 221,141 Q260,149 290,122 Q320,149 359,141 Q371,179 409,191 Q401,230 428,260" stroke="#E4D8F0" stroke-width="1.4" fill="none" opacity=".55"/><path d="M451,260 Q419,295 429,340 Q384,354 370,399 Q325,389 290,421 Q255,389 210,399 Q196,354 151,340 Q161,295 129,260 Q161,225 151,180 Q196,166 210,121 Q255,131 290,99 Q325,131 370,121 Q384,166 429,180 Q419,225 451,260" stroke="#E4D8F0" stroke-width="1.4" fill="none" opacity=".55"/><circle cx="290" cy="260" r="8" fill="none" stroke="#E4D8F0" stroke-width="1.2" opacity=".6"/><line x1="290" y1="430" x2="290" y2="532" stroke="#E4D8F0" stroke-width="1.1" opacity=".4"/><line x1="120" y1="260" x2="18" y2="260" stroke="#E4D8F0" stroke-width="1.1" opacity=".4"/><line x1="460" y1="260" x2="562" y2="260" stroke="#E4D8F0" stroke-width="1.1" opacity=".4"/><line x1="1330" y1="620" x2="1459" y2="660" stroke="#E4D8F0" stroke-width="1.7" opacity=".6"/><line x1="1330" y1="620" x2="1360" y2="752" stroke="#E4D8F0" stroke-width="1.7" opacity=".6"/><line x1="1330" y1="620" x2="1231" y2="712" stroke="#E4D8F0" stroke-width="1.7" opacity=".6"/><line x1="1330" y1="620" x2="1201" y2="580" stroke="#E4D8F0" stroke-width="1.7" opacity=".6"/><line x1="1330" y1="620" x2="1300" y2="488" stroke="#E4D8F0" stroke-width="1.7" opacity=".6"/><line x1="1330" y1="620" x2="1429" y2="528" stroke="#E4D8F0" stroke-width="1.7" opacity=".6"/><path d="M1354,627 Q1345,636 1336,644 Q1324,641 1312,637 Q1309,625 1306,613 Q1315,604 1324,596 Q1336,599 1348,603 Q1351,615 1354,627" stroke="#E4D8F0" stroke-width="1.4" fill="none" opacity=".55"/><path d="M1378,635 Q1359,652 1341,669 Q1317,661 1293,654 Q1288,630 1282,605 Q1301,588 1319,571 Q1343,579 1367,586 Q1372,610 1378,635" stroke="#E4D8F0" stroke-width="1.4" fill="none" opacity=".55"/><path d="M1402,642 Q1374,668 1347,693 Q1311,682 1275,671 Q1267,634 1258,598 Q1286,572 1313,547 Q1349,558 1385,569 Q1393,606 1402,642" stroke="#E4D8F0" stroke-width="1.4" fill="none" opacity=".55"/><path d="M1426,650 Q1389,684 1352,718 Q1304,703 1257,688 Q1246,639 1234,590 Q1271,556 1308,522 Q1356,537 1403,552 Q1414,601 1426,650" stroke="#E4D8F0" stroke-width="1.4" fill="none" opacity=".55"/><path d="M1449,657 Q1404,699 1358,742 Q1298,723 1238,705 Q1224,644 1211,583 Q1256,541 1302,498 Q1362,517 1422,535 Q1436,596 1449,657" stroke="#E4D8F0" stroke-width="1.4" fill="none" opacity=".55"/><circle cx="1330" cy="620" r="7" fill="none" stroke="#E4D8F0" stroke-width="1.2" opacity=".6"/><line x1="1201" y1="580" x2="1124" y2="556" stroke="#E4D8F0" stroke-width="1.1" opacity=".4"/><line x1="1429" y1="528" x2="1488" y2="473" stroke="#E4D8F0" stroke-width="1.1" opacity=".4"/><line x1="1231" y1="712" x2="1172" y2="767" stroke="#E4D8F0" stroke-width="1.1" opacity=".4"/><line x1="250" y1="1050" x2="378" y2="1043" stroke="#E4D8F0" stroke-width="1.7" opacity=".6"/><line x1="250" y1="1050" x2="396" y2="1174" stroke="#E4D8F0" stroke-width="1.7" opacity=".6"/><line x1="250" y1="1050" x2="279" y2="1195" stroke="#E4D8F0" stroke-width="1.7" opacity=".6"/><line x1="250" y1="1050" x2="158" y2="1203" stroke="#E4D8F0" stroke-width="1.7" opacity=".6"/><line x1="250" y1="1050" x2="110" y2="1097" stroke="#E4D8F0" stroke-width="1.7" opacity=".6"/><line x1="250" y1="1050" x2="94" y2="1008" stroke="#E4D8F0" stroke-width="1.7" opacity=".6"/><line x1="250" y1="1050" x2="180" y2="952" stroke="#E4D8F0" stroke-width="1.7" opacity=".6"/><line x1="250" y1="1050" x2="288" y2="893" stroke="#E4D8F0" stroke-width="1.7" opacity=".6"/><line x1="250" y1="1050" x2="383" y2="927" stroke="#E4D8F0" stroke-width="1.7" opacity=".6"/><path d="M270,1049 Q267,1057 273,1069 Q261,1067 255,1073 Q246,1069 236,1074 Q235,1062 228,1057 Q231,1050 226,1043 Q236,1041 239,1035 Q248,1034 256,1026 Q261,1033 271,1031 Q266,1042 270,1049" stroke="#E4D8F0" stroke-width="1.4" fill="none" opacity=".55"/><path d="M290,1048 Q284,1065 296,1089 Q272,1084 259,1095 Q242,1087 221,1098 Q221,1075 206,1065 Q213,1051 201,1037 Q222,1032 228,1019 Q246,1018 262,1001 Q271,1015 292,1012 Q283,1034 290,1048" stroke="#E4D8F0" stroke-width="1.4" fill="none" opacity=".55"/><path d="M310,1047 Q301,1072 318,1108 Q283,1100 264,1118 Q238,1106 207,1121 Q206,1087 184,1072 Q194,1051 177,1030 Q208,1024 217,1004 Q244,1002 268,977 Q282,998 312,992 Q299,1026 310,1047" stroke="#E4D8F0" stroke-width="1.4" fill="none" opacity=".55"/><path d="M330,1046 Q318,1079 341,1128 Q294,1117 268,1140 Q234,1124 192,1145 Q192,1100 162,1079 Q176,1051 152,1024 Q193,1015 206,989 Q242,986 274,952 Q293,980 333,973 Q315,1018 330,1046" stroke="#E4D8F0" stroke-width="1.4" fill="none" opacity=".55"/><path d="M350,1045 Q335,1087 364,1147 Q305,1134 273,1163 Q230,1143 178,1169 Q177,1112 140,1087 Q157,1052 128,1017 Q179,1006 195,973 Q240,970 280,928 Q304,963 354,954 Q331,1010 350,1045" stroke="#E4D8F0" stroke-width="1.4" fill="none" opacity=".55"/><path d="M370,1044 Q352,1094 387,1167 Q316,1151 277,1186 Q226,1161 164,1193 Q163,1125 118,1094 Q139,1052 104,1010 Q165,997 184,958 Q238,954 286,903 Q314,945 375,935 Q348,1002 370,1044" stroke="#E4D8F0" stroke-width="1.4" fill="none" opacity=".55"/><circle cx="250" cy="1050" r="8" fill="none" stroke="#E4D8F0" stroke-width="1.2" opacity=".6"/><line x1="360" y1="948" x2="426" y2="887" stroke="#E4D8F0" stroke-width="1.1" opacity=".4"/><line x1="163" y1="928" x2="111" y2="855" stroke="#E4D8F0" stroke-width="1.1" opacity=".4"/><line x1="105" y1="1011" x2="18" y2="987" stroke="#E4D8F0" stroke-width="1.1" opacity=".4"/><line x1="1300" y1="1420" x2="1481" y2="1457" stroke="#E4D8F0" stroke-width="1.7" opacity=".6"/><line x1="1300" y1="1420" x2="1447" y2="1532" stroke="#E4D8F0" stroke-width="1.7" opacity=".6"/><line x1="1300" y1="1420" x2="1384" y2="1585" stroke="#E4D8F0" stroke-width="1.7" opacity=".6"/><line x1="1300" y1="1420" x2="1305" y2="1605" stroke="#E4D8F0" stroke-width="1.7" opacity=".6"/><line x1="1300" y1="1420" x2="1224" y2="1589" stroke="#E4D8F0" stroke-width="1.7" opacity=".6"/><line x1="1300" y1="1420" x2="1158" y2="1539" stroke="#E4D8F0" stroke-width="1.7" opacity=".6"/><line x1="1300" y1="1420" x2="1121" y2="1466" stroke="#E4D8F0" stroke-width="1.7" opacity=".6"/><line x1="1300" y1="1420" x2="1119" y2="1383" stroke="#E4D8F0" stroke-width="1.7" opacity=".6"/><line x1="1300" y1="1420" x2="1153" y2="1308" stroke="#E4D8F0" stroke-width="1.7" opacity=".6"/><line x1="1300" y1="1420" x2="1216" y2="1255" stroke="#E4D8F0" stroke-width="1.7" opacity=".6"/><line x1="1300" y1="1420" x2="1295" y2="1235" stroke="#E4D8F0" stroke-width="1.7" opacity=".6"/><line x1="1300" y1="1420" x2="1376" y2="1251" stroke="#E4D8F0" stroke-width="1.7" opacity=".6"/><line x1="1300" y1="1420" x2="1442" y2="1301" stroke="#E4D8F0" stroke-width="1.7" opacity=".6"/><line x1="1300" y1="1420" x2="1479" y2="1374" stroke="#E4D8F0" stroke-width="1.7" opacity=".6"/><path d="M1322,1424 Q1318,1428 1318,1433 Q1312,1435 1310,1440 Q1305,1439 1301,1442 Q1296,1439 1291,1440 Q1288,1435 1283,1434 Q1283,1429 1279,1425 Q1281,1420 1278,1416 Q1282,1412 1282,1407 Q1288,1405 1290,1400 Q1295,1401 1299,1398 Q1304,1401 1309,1400 Q1312,1405 1317,1406 Q1317,1411 1321,1415 Q1319,1420 1322,1424" stroke="#E4D8F0" stroke-width="1.4" fill="none" opacity=".55"/><path d="M1343,1429 Q1335,1436 1335,1447 Q1325,1450 1320,1459 Q1310,1457 1301,1464 Q1292,1458 1282,1460 Q1277,1451 1266,1448 Q1266,1438 1257,1431 Q1261,1421 1257,1411 Q1265,1404 1265,1393 Q1275,1390 1280,1381 Q1290,1383 1299,1376 Q1308,1382 1318,1380 Q1323,1389 1334,1392 Q1334,1402 1343,1409 Q1339,1419 1343,1429" stroke="#E4D8F0" stroke-width="1.4" fill="none" opacity=".55"/><path d="M1365,1433 Q1353,1444 1353,1460 Q1337,1464 1330,1479 Q1314,1476 1302,1486 Q1288,1477 1273,1480 Q1265,1466 1249,1462 Q1248,1446 1236,1436 Q1242,1421 1235,1407 Q1247,1396 1247,1380 Q1263,1376 1270,1361 Q1286,1364 1298,1354 Q1312,1363 1327,1360 Q1335,1374 1351,1378 Q1352,1394 1364,1404 Q1358,1419 1365,1433" stroke="#E4D8F0" stroke-width="1.4" fill="none" opacity=".55"/><path d="M1386,1438 Q1370,1452 1370,1473 Q1350,1479 1340,1498 Q1319,1495 1302,1508 Q1285,1496 1264,1500 Q1253,1482 1232,1477 Q1231,1455 1215,1442 Q1223,1422 1214,1402 Q1230,1388 1230,1367 Q1250,1361 1260,1342 Q1281,1345 1298,1332 Q1315,1344 1336,1340 Q1347,1358 1368,1363 Q1369,1385 1385,1398 Q1377,1418 1386,1438" stroke="#E4D8F0" stroke-width="1.4" fill="none" opacity=".55"/><path d="M1408,1442 Q1388,1460 1388,1487 Q1362,1494 1350,1518 Q1324,1514 1303,1530 Q1281,1515 1255,1520 Q1242,1497 1216,1491 Q1214,1464 1193,1447 Q1203,1422 1192,1398 Q1212,1380 1212,1353 Q1238,1346 1250,1322 Q1276,1326 1297,1310 Q1319,1325 1345,1320 Q1358,1343 1384,1349 Q1386,1376 1407,1393 Q1397,1418 1408,1442" stroke="#E4D8F0" stroke-width="1.4" fill="none" opacity=".55"/><path d="M1430,1446 Q1406,1468 1405,1500 Q1374,1509 1360,1538 Q1329,1532 1303,1552 Q1277,1534 1246,1540 Q1230,1512 1199,1505 Q1197,1473 1172,1453 Q1184,1423 1170,1394 Q1194,1372 1195,1340 Q1226,1331 1240,1302 Q1271,1308 1297,1288 Q1323,1306 1354,1300 Q1370,1328 1401,1335 Q1403,1367 1428,1387 Q1416,1417 1430,1446" stroke="#E4D8F0" stroke-width="1.4" fill="none" opacity=".55"/><path d="M1451,1451 Q1423,1476 1423,1513 Q1387,1524 1370,1557 Q1333,1551 1304,1574 Q1273,1553 1237,1560 Q1218,1528 1182,1519 Q1180,1482 1151,1458 Q1165,1423 1149,1389 Q1177,1364 1177,1327 Q1213,1316 1230,1283 Q1267,1289 1296,1266 Q1327,1287 1363,1280 Q1382,1312 1418,1321 Q1420,1358 1449,1382 Q1435,1417 1451,1451" stroke="#E4D8F0" stroke-width="1.4" fill="none" opacity=".55"/><path d="M1473,1455 Q1441,1484 1440,1526 Q1399,1538 1380,1577 Q1338,1570 1304,1596 Q1269,1572 1227,1581 Q1207,1543 1165,1533 Q1162,1490 1129,1463 Q1145,1424 1127,1385 Q1159,1356 1160,1314 Q1201,1302 1220,1263 Q1262,1270 1296,1244 Q1331,1268 1373,1259 Q1393,1297 1435,1307 Q1438,1350 1471,1377 Q1455,1416 1473,1455" stroke="#E4D8F0" stroke-width="1.4" fill="none" opacity=".55"/><circle cx="1300" cy="1420" r="9" fill="none" stroke="#E4D8F0" stroke-width="1.2" opacity=".6"/><line x1="1153" y1="1308" x2="1064" y2="1241" stroke="#E4D8F0" stroke-width="1.1" opacity=".4"/><line x1="1305" y1="1605" x2="1307" y2="1716" stroke="#E4D8F0" stroke-width="1.1" opacity=".4"/><line x1="1384" y1="1585" x2="1435" y2="1683" stroke="#E4D8F0" stroke-width="1.1" opacity=".4"/><line x1="560" y1="1760" x2="670" y2="1762" stroke="#E4D8F0" stroke-width="1.7" opacity=".6"/><line x1="560" y1="1760" x2="629" y2="1833" stroke="#E4D8F0" stroke-width="1.7" opacity=".6"/><line x1="560" y1="1760" x2="556" y2="1869" stroke="#E4D8F0" stroke-width="1.7" opacity=".6"/><line x1="560" y1="1760" x2="499" y2="1815" stroke="#E4D8F0" stroke-width="1.7" opacity=".6"/><line x1="560" y1="1760" x2="466" y2="1757" stroke="#E4D8F0" stroke-width="1.7" opacity=".6"/><line x1="560" y1="1760" x2="502" y2="1696" stroke="#E4D8F0" stroke-width="1.7" opacity=".6"/><line x1="560" y1="1760" x2="554" y2="1664" stroke="#E4D8F0" stroke-width="1.7" opacity=".6"/><line x1="560" y1="1760" x2="629" y2="1691" stroke="#E4D8F0" stroke-width="1.7" opacity=".6"/><path d="M585,1760 Q579,1768 576,1777 Q567,1780 559,1785 Q553,1778 546,1772 Q543,1766 539,1759 Q544,1753 547,1745 Q553,1743 559,1738 Q567,1742 576,1744 Q579,1753 585,1760" stroke="#E4D8F0" stroke-width="1.4" fill="none" opacity=".55"/><path d="M610,1761 Q599,1776 591,1793 Q574,1799 558,1809 Q546,1795 532,1785 Q527,1771 517,1759 Q527,1746 534,1731 Q546,1725 557,1716 Q574,1724 591,1729 Q599,1745 610,1761" stroke="#E4D8F0" stroke-width="1.4" fill="none" opacity=".55"/><path d="M635,1761 Q618,1784 607,1810 Q581,1819 557,1834 Q539,1813 518,1797 Q510,1777 496,1758 Q511,1738 521,1716 Q539,1708 556,1694 Q580,1706 607,1713 Q618,1738 635,1761" stroke="#E4D8F0" stroke-width="1.4" fill="none" opacity=".55"/><path d="M660,1762 Q637,1792 622,1826 Q588,1838 556,1859 Q532,1830 505,1810 Q493,1782 475,1757 Q495,1731 508,1702 Q533,1691 555,1672 Q587,1688 622,1697 Q637,1731 660,1762" stroke="#E4D8F0" stroke-width="1.4" fill="none" opacity=".55"/><circle cx="560" cy="1760" r="5" fill="none" stroke="#E4D8F0" stroke-width="1.2" opacity=".6"/><line x1="655" y1="1761" x2="712" y2="1762" stroke="#E4D8F0" stroke-width="1.1" opacity=".4"/><line x1="496" y1="1689" x2="458" y2="1647" stroke="#E4D8F0" stroke-width="1.1" opacity=".4"/><line x1="625" y1="1829" x2="664" y2="1871" stroke="#E4D8F0" stroke-width="1.1" opacity=".4"/><line x1="1040" y1="180" x2="1132" y2="186" stroke="#E4D8F0" stroke-width="1.7" opacity=".6"/><line x1="1040" y1="180" x2="1082" y2="241" stroke="#E4D8F0" stroke-width="1.7" opacity=".6"/><line x1="1040" y1="180" x2="1020" y2="271" stroke="#E4D8F0" stroke-width="1.7" opacity=".6"/><line x1="1040" y1="180" x2="979" y2="213" stroke="#E4D8F0" stroke-width="1.7" opacity=".6"/><line x1="1040" y1="180" x2="951" y2="148" stroke="#E4D8F0" stroke-width="1.7" opacity=".6"/><line x1="1040" y1="180" x2="1023" y2="91" stroke="#E4D8F0" stroke-width="1.7" opacity=".6"/><line x1="1040" y1="180" x2="1087" y2="120" stroke="#E4D8F0" stroke-width="1.7" opacity=".6"/><path d="M1061,181 Q1053,186 1050,194 Q1042,195 1035,201 Q1032,192 1026,188 Q1026,180 1020,173 Q1030,168 1036,160 Q1043,166 1051,166 Q1053,175 1061,181" stroke="#E4D8F0" stroke-width="1.4" fill="none" opacity=".55"/><path d="M1082,183 Q1066,193 1059,208 Q1044,209 1031,221 Q1024,204 1012,195 Q1011,180 1000,166 Q1019,157 1032,139 Q1046,151 1061,153 Q1067,170 1082,183" stroke="#E4D8F0" stroke-width="1.4" fill="none" opacity=".55"/><path d="M1103,184 Q1079,199 1069,221 Q1046,224 1026,242 Q1017,216 999,203 Q997,180 979,158 Q1009,145 1028,119 Q1049,137 1072,139 Q1080,164 1103,184" stroke="#E4D8F0" stroke-width="1.4" fill="none" opacity=".55"/><path d="M1124,185 Q1092,206 1078,235 Q1048,239 1021,262 Q1009,228 985,210 Q982,180 959,151 Q999,133 1024,99 Q1051,122 1083,126 Q1094,159 1124,185" stroke="#E4D8F0" stroke-width="1.4" fill="none" opacity=".55"/><circle cx="1040" cy="180" r="4" fill="none" stroke="#E4D8F0" stroke-width="1.2" opacity=".6"/><line x1="965" y1="153" x2="919" y2="137" stroke="#E4D8F0" stroke-width="1.1" opacity=".4"/><line x1="1089" y1="117" x2="1119" y2="79" stroke="#E4D8F0" stroke-width="1.1" opacity=".4"/><line x1="1120" y1="185" x2="1168" y2="188" stroke="#E4D8F0" stroke-width="1.1" opacity=".4"/><line x1="290" y1="260" x2="290" y2="520" stroke="#E4D8F0" stroke-width="1.2" opacity=".6"/><path d="M290,520 q-10,-6 -16,-2" stroke="#0B0612" stroke-width="2.4" fill="none"/><path d="M290,520 q10,-6 16,-2" stroke="#0B0612" stroke-width="2.4" fill="none"/><path d="M290,520 q-10,-2 -16,3" stroke="#0B0612" stroke-width="2.4" fill="none"/><path d="M290,520 q10,-2 16,3" stroke="#0B0612" stroke-width="2.4" fill="none"/><path d="M290,520 q-10,2 -16,8" stroke="#0B0612" stroke-width="2.4" fill="none"/><path d="M290,520 q10,2 16,8" stroke="#0B0612" stroke-width="2.4" fill="none"/><path d="M290,520 q-10,6 -16,13" stroke="#0B0612" stroke-width="2.4" fill="none"/><path d="M290,520 q10,6 16,13" stroke="#0B0612" stroke-width="2.4" fill="none"/><ellipse cx="290" cy="522" rx="7" ry="9" fill="#0B0612"/><circle cx="290" cy="513" r="5" fill="#0B0612"/><line x1="1300" y1="1420" x2="1300" y2="1660" stroke="#E4D8F0" stroke-width="1.2" opacity=".6"/><path d="M1300,1660 q-10,-6 -16,-2" stroke="#0B0612" stroke-width="2.4" fill="none"/><path d="M1300,1660 q10,-6 16,-2" stroke="#0B0612" stroke-width="2.4" fill="none"/><path d="M1300,1660 q-10,-2 -16,3" stroke="#0B0612" stroke-width="2.4" fill="none"/><path d="M1300,1660 q10,-2 16,3" stroke="#0B0612" stroke-width="2.4" fill="none"/><path d="M1300,1660 q-10,2 -16,8" stroke="#0B0612" stroke-width="2.4" fill="none"/><path d="M1300,1660 q10,2 16,8" stroke="#0B0612" stroke-width="2.4" fill="none"/><path d="M1300,1660 q-10,6 -16,13" stroke="#0B0612" stroke-width="2.4" fill="none"/><path d="M1300,1660 q10,6 16,13" stroke="#0B0612" stroke-width="2.4" fill="none"/><ellipse cx="1300" cy="1662" rx="7" ry="9" fill="#0B0612"/><circle cx="1300" cy="1653" r="5" fill="#0B0612"/><line x1="250" y1="1050" x2="250" y2="1180" stroke="#E4D8F0" stroke-width="1.2" opacity=".6"/><path d="M250,1180 q-10,-6 -16,-2" stroke="#0B0612" stroke-width="2.4" fill="none"/><path d="M250,1180 q10,-6 16,-2" stroke="#0B0612" stroke-width="2.4" fill="none"/><path d="M250,1180 q-10,-2 -16,3" stroke="#0B0612" stroke-width="2.4" fill="none"/><path d="M250,1180 q10,-2 16,3" stroke="#0B0612" stroke-width="2.4" fill="none"/><path d="M250,1180 q-10,2 -16,8" stroke="#0B0612" stroke-width="2.4" fill="none"/><path d="M250,1180 q10,2 16,8" stroke="#0B0612" stroke-width="2.4" fill="none"/><path d="M250,1180 q-10,6 -16,13" stroke="#0B0612" stroke-width="2.4" fill="none"/><path d="M250,1180 q10,6 16,13" stroke="#0B0612" stroke-width="2.4" fill="none"/><ellipse cx="250" cy="1182" rx="7" ry="9" fill="#0B0612"/><circle cx="250" cy="1173" r="5" fill="#0B0612"/><g transform="translate(700,760) rotate(-10) scale(0.80)"><path d="M0,6 C-8,-6 -22,-10 -40,-4 C-34,-2 -30,4 -30,10 C-26,6 -20,6 -16,10 C-14,4 -8,4 -4,8 L0,2 L4,8 C8,4 14,4 16,10 C20,6 26,6 30,10 C30,4 34,-2 40,-4 C22,-10 8,-6 0,6Z" fill="#0B0612"/><path d="M-4,-2 L-3,-8 L-1,-3 L1,-3 L3,-8 L4,-2 C3,4 -3,4 -4,-2Z" fill="#0B0612"/></g><g transform="translate(980,420) rotate(12) scale(0.70)"><path d="M0,6 C-8,-6 -22,-10 -40,-4 C-34,-2 -30,4 -30,10 C-26,6 -20,6 -16,10 C-14,4 -8,4 -4,8 L0,2 L4,8 C8,4 14,4 16,10 C20,6 26,6 30,10 C30,4 34,-2 40,-4 C22,-10 8,-6 0,6Z" fill="#0B0612"/><path d="M-4,-2 L-3,-8 L-1,-3 L1,-3 L3,-8 L4,-2 C3,4 -3,4 -4,-2Z" fill="#0B0612"/></g><g transform="translate(820,1300) rotate(-6) scale(0.90)"><path d="M0,6 C-8,-6 -22,-10 -40,-4 C-34,-2 -30,4 -30,10 C-26,6 -20,6 -16,10 C-14,4 -8,4 -4,8 L0,2 L4,8 C8,4 14,4 16,10 C20,6 26,6 30,10 C30,4 34,-2 40,-4 C22,-10 8,-6 0,6Z" fill="#0B0612"/><path d="M-4,-2 L-3,-8 L-1,-3 L1,-3 L3,-8 L4,-2 C3,4 -3,4 -4,-2Z" fill="#0B0612"/></g><g transform="translate(1180,1900) rotate(8) scale(0.60)"><path d="M0,6 C-8,-6 -22,-10 -40,-4 C-34,-2 -30,4 -30,10 C-26,6 -20,6 -16,10 C-14,4 -8,4 -4,8 L0,2 L4,8 C8,4 14,4 16,10 C20,6 26,6 30,10 C30,4 34,-2 40,-4 C22,-10 8,-6 0,6Z" fill="#0B0612"/><path d="M-4,-2 L-3,-8 L-1,-3 L1,-3 L3,-8 L4,-2 C3,4 -3,4 -4,-2Z" fill="#0B0612"/></g><g transform="translate(420,1500) rotate(4) scale(0.70)"><path d="M0,6 C-8,-6 -22,-10 -40,-4 C-34,-2 -30,4 -30,10 C-26,6 -20,6 -16,10 C-14,4 -8,4 -4,8 L0,2 L4,8 C8,4 14,4 16,10 C20,6 26,6 30,10 C30,4 34,-2 40,-4 C22,-10 8,-6 0,6Z" fill="#0B0612"/><path d="M-4,-2 L-3,-8 L-1,-3 L1,-3 L3,-8 L4,-2 C3,4 -3,4 -4,-2Z" fill="#0B0612"/></g></svg>