<svg xmlns="http://www.w3.org/2000/svg" viewBox="0 0 1600 1000" preserveAspectRatio="xMidYMid slice"><defs><filter id="gl" x="-50%" y="-50%" width="200%" height="200%"><feGaussianBlur stdDeviation="7" result="b"/><feMerge><feMergeNode in="b"/><feMergeNode in="b"/><feMergeNode in="SourceGraphic"/></feMerge></filter><radialGradient id="sky" cx="50%" cy="0%" r="110%"><stop offset="0" stop-color="#241237"/><stop offset=".6" stop-color="#0B0712"/><stop offset="1" stop-color="#050308"/></radialGradient></defs><rect width="100%" height="100%" fill="url(#sky)"/><path d="M120,-20 L159,49 L170,122 L196,211 L268,280 L339,345 L393,398 L440,508 L496,570 L519,694" stroke="#B36BFF" stroke-width="5" fill="none" stroke-linejoin="miter" filter="url(#gl)" opacity=".95"/><path d="M120,-20 L159,49 L170,122 L196,211 L268,280 L339,345 L393,398 L440,508 L496,570 L519,694" stroke="#fff" stroke-width="1.6" fill="none" opacity=".9"/><path d="M170,122 L171,188 L140,240 L109,315 L66,384" stroke="#B36BFF" stroke-width="2.5" fill="none" filter="url(#gl)" opacity=".75"/><path d="M170,122 L171,188 L140,240 L109,315 L66,384" stroke="#fff" stroke-width=".8" fill="none" opacity=".7"/><path d="M339,345 L421,346 L481,352 L544,404 L610,447" stroke="#B36BFF" stroke-width="2.5" fill="none" filter="url(#gl)" opacity=".75"/><path d="M339,345 L421,346 L481,352 L544,404 L610,447" stroke="#fff" stroke-width=".8" fill="none" opacity=".7"/><path d="M496,570 L441,624 L383,667 L370,729 L328,771" stroke="#B36BFF" stroke-width="2.5" fill="none" filter="url(#gl)" opacity=".75"/><path d="M496,570 L441,624 L383,667 L370,729 L328,771" stroke="#fff" stroke-width=".8" fill="none" opacity=".7"/><path d="M520,-40 L535,36 L545,111 L537,168 L534,230 L548,327 L554,426 L588,499 L556,586 L567,656" stroke="#FF4FD8" stroke-width="5" fill="none" stroke-linejoin="miter" filter="url(#gl)" opacity=".95"/><path d="M520,-40 L535,36 L545,111 L537,168 L534,230 L548,327 L554,426 L588,499 L556,586 L567,656" stroke="#fff" stroke-width="1.6" fill="none" opacity=".9"/><path d="M545,111 L498,147 L426,175 L377,222 L354,286" stroke="#FF4FD8" stroke-width="2.5" fill="none" filter="url(#gl)" opacity=".75"/><path d="M545,111 L498,147 L426,175 L377,222 L354,286" stroke="#fff" stroke-width=".8" fill="none" opacity=".7"/><path d="M548,327 L516,374 L479,397 L445,432 L427,473" stroke="#FF4FD8" stroke-width="2.5" fill="none" filter="url(#gl)" opacity=".75"/><path d="M548,327 L516,374 L479,397 L445,432 L427,473" stroke="#fff" stroke-width=".8" fill="none" opacity=".7"/><path d="M556,586 L535,634 L486,691 L465,746 L407,794" stroke="#FF4FD8" stroke-width="2.5" fill="none" filter="url(#gl)" opacity=".75"/><path d="M556,586 L535,634 L486,691 L465,746 L407,794" stroke="#fff" stroke-width=".8" fill="none" opacity=".7"/><path d="M980,-30 L905,98 L912,214 L909,365 L848,440 L866,541 L879,661 L851,762 L892,870 L888,997" stroke="#4FE3FF" stroke-width="5" fill="none" stroke-linejoin="miter" filter="url(#gl)" opacity=".95"/><path d="M980,-30 L905,98 L912,214 L909,365 L848,440 L866,541 L879,661 L851,762 L892,870 L888,997" stroke="#fff" stroke-width="1.6" fill="none" opacity=".9"/><path d="M912,214 L951,303 L1001,397 L1108,450 L1144,562" stroke="#4FE3FF" stroke-width="2.5" fill="none" filter="url(#gl)" opacity=".75"/><path d="M912,214 L951,303 L1001,397 L1108,450 L1144,562" stroke="#fff" stroke-width=".8" fill="none" opacity=".7"/><path d="M866,541 L797,599 L723,651 L649,751 L590,796" stroke="#4FE3FF" stroke-width="2.5" fill="none" filter="url(#gl)" opacity=".75"/><path d="M866,541 L797,599 L723,651 L649,751 L590,796" stroke="#fff" stroke-width=".8" fill="none" opacity=".7"/><path d="M892,870 L980,919 L1047,1021 L1081,1084 L1153,1137" stroke="#4FE3FF" stroke-width="2.5" fill="none" filter="url(#gl)" opacity=".75"/><path d="M892,870 L980,919 L1047,1021 L1081,1084 L1153,1137" stroke="#fff" stroke-width=".8" fill="none" opacity=".7"/><path d="M1350,-20 L1298,81 L1261,160 L1269,248 L1203,305 L1194,375 L1136,458 L1107,553 L1082,622 L1022,677" stroke="#FFD84F" stroke-width="5" fill="none" stroke-linejoin="miter" filter="url(#gl)" opacity=".95"/><path d="M1350,-20 L1298,81 L1261,160 L1269,248 L1203,305 L1194,375 L1136,458 L1107,553 L1082,622 L1022,677" stroke="#fff" stroke-width="1.6" fill="none" opacity=".9"/><path d="M1261,160 L1272,220 L1288,270 L1295,341 L1296,405" stroke="#FFD84F" stroke-width="2.5" fill="none" filter="url(#gl)" opacity=".75"/><path d="M1261,160 L1272,220 L1288,270 L1295,341 L1296,405" stroke="#fff" stroke-width=".8" fill="none" opacity=".7"/><path d="M1194,375 L1229,449 L1264,495 L1276,584 L1283,667" stroke="#FFD84F" stroke-width="2.5" fill="none" filter="url(#gl)" opacity=".75"/><path d="M1194,375 L1229,449 L1264,495 L1276,584 L1283,667" stroke="#fff" stroke-width=".8" fill="none" opacity=".7"/><path d="M1082,622 L1024,632 L966,658 L937,699 L891,737" stroke="#FFD84F" stroke-width="2.5" fill="none" filter="url(#gl)" opacity=".75"/><path d="M1082,622 L1024,632 L966,658 L937,699 L891,737" stroke="#fff" stroke-width=".8" fill="none" opacity=".7"/><path d="M300,1020 L333,957 L348,889 L399,840 L404,794 L403,749 L400,689 L443,638 L458,579 L482,545" stroke="#B36BFF" stroke-width="5" fill="none" stroke-linejoin="miter" filter="url(#gl)" opacity=".95"/><path d="M300,1020 L333,957 L348,889 L399,840 L404,794 L403,749 L400,689 L443,638 L458,579 L482,545" stroke="#fff" stroke-width="1.6" fill="none" opacity=".9"/><path d="M348,889 L344,838 L333,796 L293,763 L259,724" stroke="#B36BFF" stroke-width="2.5" fill="none" filter="url(#gl)" opacity=".75"/><path d="M348,889 L344,838 L333,796 L293,763 L259,724" stroke="#fff" stroke-width=".8" fill="none" opacity=".7"/><path d="M403,749 L446,723 L466,694 L497,696 L537,679" stroke="#B36BFF" stroke-width="2.5" fill="none" filter="url(#gl)" opacity=".75"/><path d="M403,749 L446,723 L466,694 L497,696 L537,679" stroke="#fff" stroke-width=".8" fill="none" opacity=".7"/><path d="M458,579 L440,537 L411,490 L375,462 L330,437" stroke="#B36BFF" stroke-width="2.5" fill="none" filter="url(#gl)" opacity=".75"/><path d="M458,579 L440,537 L411,490 L375,462 L330,437" stroke="#fff" stroke-width=".8" fill="none" opacity=".7"/></svg>